# xmcd
# 
# Track frame offsets:
#	150
#	13560
#	30240
#	47088
#	68667
#	82847
#	95552
#	109561
#	123819
#	137831
#	153087
#	171732
#	190363
#	206466
#	219031
#	235377
#	247575
#	261777
#	277517
#	289427
#
# Disc length: 4070 seconds
#
# Revision: 1
# Processed by: cddbd v1.5.1PL0 Copyright (c) Steve Scherf et al.
# Submitted via: Audio-CD-Archiv 3.00.486
#
DISCID=030fe414
DTITLE=Various Artist - Trucker and Country Songs (Box) - CD 3 (2003)
DYEAR=1900
DGENRE=country
TTITLE0=Jennifer Weatherly: In The Name Of Love
TTITLE1=Tennessee: Traumfrau
TTITLE2=The Cumberland Boys: I Hold A Clear Title
TTITLE3=Rebecca Holden: The Freedom To Believe
TTITLE4=Bonny Taylor: Naturally
TTITLE5=Country Rose: Honky Tonk Saturday
TTITLE6=John Brack and Bjoro Haland: When You're In The Mood
TTITLE7=Texas Radio: Time To Go Home
TTITLE8=John Brack: I Don't Mind
TTITLE9=Cissy: Ich steh' am Fenster
TTITLE10=Jeff Turner: One Good Reason
TTITLE11=Sammy's Saloon: Die härteste Enttäuschung
TTITLE12=Rebecca Holden: I Wanna Get Over You
TTITLE13=Tex Robinson: You're My Best Friend
TTITLE14=Krüger Brothers: Down In The Coal Mine
TTITLE15=Val and Bird: Nobody's Fool
TTITLE16=Tennessee: Hallo, liebe Hörer
TTITLE17=Joyce 'n' Webber: When You Walk By My Side
TTITLE18=John Brack: We Always Had Love
TTITLE19=Joe Schwach: Evening Gown
EXTD=
EXTT0=
EXTT1=
EXTT2=
EXTT3=
EXTT4=
EXTT5=
EXTT6=
EXTT7=
EXTT8=
EXTT9=
EXTT10=
EXTT11=
EXTT12=
EXTT13=
EXTT14=
EXTT15=
EXTT16=
EXTT17=
EXTT18=
EXTT19=
PLAYORDER=
